Coordinates
version=1
nRows=29
nColumns=24
inDegrees=yes

Units are S.I. units (second, meters, Newtons, ...)
Angles are in degrees.

endheader
time	pelvis_tilt	pelvis_list	pelvis_rotation	pelvis_tx	pelvis_ty	pelvis_tz	hip_flexion_r	hip_adduction_r	hip_rotation_r	knee_angle_r	ankle_angle_r	subtalar_angle_r	mtp_angle_r	hip_flexion_l	hip_adduction_l	hip_rotation_l	knee_angle_l	ankle_angle_l	subtalar_angle_l	mtp_angle_l	lumbar_extension	lumbar_bending	lumbar_rotation
      0.67950000	      3.39360041	     -3.29161632	     -4.88107074	     -0.52707662	      1.02547801	      0.33705101	      5.98123501	      6.58092929	     -3.86402675	    -12.26849514	     -3.42003151	    -13.79852158	     -2.71751167	     17.18592762	     -9.02275529	     -9.10668778	    -69.68744598	      5.80148134	    -12.27529097	    -11.28862731	    -15.87668763	      5.67922440	      7.35894307
      0.68366667	      3.34813304	     -3.16703995	     -4.90154723	     -0.52168727	      1.02638556	      0.33737146	      5.51839063	      6.45981787	     -3.78290094	    -11.91513878	     -3.34680116	    -13.78216079	     -2.72453986	     17.81931115	     -8.85962962	     -9.04586325	    -69.10826317	      5.96910127	    -12.29832081	    -11.28893264	    -15.81762624	      5.51403873	      7.43583126
      0.68783333	      3.30698389	     -3.01642628	     -4.92016810	     -0.51635043	      1.02726708	      0.33765093	      5.06608761	      6.30503646	     -3.70991566	    -11.57907744	     -3.30081696	    -13.74727459	     -2.73760033	     18.42628646	     -8.65561945	     -8.99416595	    -68.44081840	      6.09618325	    -12.35974064	    -11.29244835	    -15.78271545	      5.31560256	      7.53785982
      0.69200000	      3.29768589	     -2.87941339	     -4.94940657	     -0.51097165	      1.02815945	      0.33797045	      4.56923574	      6.16268833	     -3.63883533	    -11.22986760	     -3.22512704	    -13.69855956	     -2.75464591	     18.96060845	     -8.47666358	     -8.98448678	    -67.69091095	      6.19383098	    -12.46376141	    -11.29981327	    -15.76667093	      5.12343514	      7.63689971
      0.69616667	      3.28473480	     -2.75353975	     -4.98343595	     -0.50557666	      1.02901259	      0.33831796	      4.07174122	      6.03488668	     -3.55897461	    -10.87488579	     -3.14993072	    -13.65253647	     -2.77311756	     19.46774553	     -8.31644493	     -8.99613937	    -66.86668138	      6.28044118	    -12.57321370	    -11.30990289	    -15.74674949	      4.94729495	      7.72261831
      0.70033333	      3.34620604	     -2.60956110	     -5.04924530	     -0.50016012	      1.02997124	      0.33872677	      3.49401696	      5.88069431	     -3.46246658	    -10.52434330	     -3.01916553	    -13.55679666	     -2.81462173	     19.84162581	     -8.14527814	     -9.07999663	    -65.93386235	      6.29235237	    -12.76108721	    -11.33726144	    -15.80933083	      4.72857955	      7.84700849
      0.70450000	      3.36610118	     -2.48726044	     -5.09209875	     -0.49475596	      1.03078405	      0.33911537	      2.95804956	      5.75503385	     -3.37337788	    -10.16130866	     -2.95227306	    -13.52671135	     -2.85587417	     20.25022889	     -7.99683102	     -9.13995485	    -64.96043589	      6.34764705	    -12.88237897	    -11.36649784	    -15.83043957	      4.53198920	      7.94056552
      0.70866667	      3.32266054	     -2.38986190	     -5.12351836	     -0.48933310	      1.03142395	      0.33945393	      2.49696245	      5.65731425	     -3.31312769	     -9.81386984	     -2.91758742	    -13.51247054	     -2.87648153	     20.71045440	     -7.87527555	     -9.18782657	    -63.94574317	      6.45785781	    -12.96001128	    -11.38307724	    -15.76739762	      4.40173265	      8.00396894
      0.71283333	      3.43434626	     -2.25425257	     -5.20978977	     -0.48392544	      1.03231461	      0.33992551	      1.86713784	      5.50760833	     -3.19613715	     -9.46277687	     -2.78988452	    -13.42823688	     -2.93090790	     20.93380585	     -7.72448647	     -9.34503680	    -62.79586188	      6.42715141	    -13.17827905	    -11.43555172	    -15.89672281	      4.16398066	      8.13951044
      0.71700000	      3.45701809	     -2.14987607	     -5.26524307	     -0.47849171	      1.03298101	      0.34034122	      1.33577213	      5.39747797	     -3.11715716	     -9.11852052	     -2.71644338	    -13.40582420	     -2.98368371	     21.24610246	     -7.60697619	     -9.46435450	    -61.61947058	      6.45889559	    -13.29425275	    -11.48833053	    -15.91429180	      3.98839832	      8.23736217
      0.72116667	      3.48972632	     -2.05275447	     -5.32590420	     -0.47305303	      1.03360016	      0.34076532	      0.79794089	      5.29263188	     -3.04214454	     -8.78425683	     -2.63112283	    -13.36641979	     -3.03737595	     21.51607782	     -7.49904352	     -9.60324370	    -60.38015615	      6.48295105	    -13.41188212	    -11.54732693	    -15.94144316	      3.81752269	      8.33344156
      0.72533333	      3.51635224	     -1.96281294	     -5.38698568	     -0.46764133	      1.03414778	      0.34117142	      0.27248279	      5.19462988	     -2.94916664	     -8.45854115	     -2.54240339	    -13.32008999	     -3.09455052	     21.76852867	     -7.39552199	     -9.74601824	    -59.08353010	      6.50615912	    -13.51701887	    -11.61470090	    -15.97669638	      3.65718053	      8.43113169
      0.72950000	      3.44624307	     -1.91490347	     -5.40322795	     -0.46220535	      1.03443874	      0.34147618	     -0.14127538	      5.14779213	     -2.92285700	     -8.15256513	     -2.49610361	    -13.31627198	     -3.11924637	     22.12611613	     -7.32882379	     -9.83345192	    -57.77397233	      6.56847810	    -13.53358116	    -11.64483911	    -15.88584475	      3.57302957	      8.48762426
      0.73366667	      3.59455585	     -1.82850183	     -5.50891096	     -0.45679015	      1.03508931	      0.34199202	     -0.79379127	      5.03950228	     -2.80623090	     -7.83673207	     -2.35413101	    -13.21868290	     -3.20659853	     22.15697216	     -7.24559927	    -10.07614803	    -56.31902779	      6.54808128	    -13.62760658	    -11.75893778	    -16.06479877	      3.37849290	      8.64978044
      0.73783333	      3.55669386	     -1.77623853	     -5.56239992	     -0.45135724	      1.03532021	      0.34237291	     -1.22624712	      4.98494706	     -2.74516207	     -7.56498316	     -2.24287638	    -13.21852255	     -3.25862881	     22.40576409	     -7.18678578	    -10.24239507	    -54.87285417	      6.55957875	    -13.71097941	    -11.82818203	    -16.01911729	      3.26615573	      8.69575127
      0.74200000	      3.57930123	     -1.73191149	     -5.62126767	     -0.44596082	      1.03559677	      0.34274062	     -1.72039011	      4.92846179	     -2.66173544	     -7.29779820	     -2.11542161	    -13.15709019	     -3.32496120	     22.55192351	     -7.12631517	    -10.41430698	    -53.35259867	      6.57911578	    -13.72018317	    -11.91726014	    -16.05554038	      3.15638894	      8.79558389
      0.74616667	      3.57008172	     -1.71482403	     -5.66331276	     -0.44053002	      1.03573664	      0.34308153	     -2.17688495	      4.90434823	     -2.61965726	     -7.04497255	     -1.99502892	    -13.13423792	     -3.38642564	     22.71442200	     -7.09604787	    -10.58620470	    -51.79933294	      6.61205611	    -13.70004004	    -11.99772769	    -16.04317079	      3.08337088	      8.86382053
      0.75033333	      3.53551580	     -1.71044623	     -5.70285619	     -0.43513617	      1.03576471	      0.34338124	     -2.59392074	      4.89336635	     -2.55778523	     -6.81534041	     -1.85422262	    -13.09046414	     -3.44977061	     22.88310542	     -7.07053755	    -10.74403908	    -50.19908246	      6.63517680	    -13.64010771	    -12.07975377	    -16.01975231	      3.03153409	      8.93549771
      0.75450000	      3.41383136	     -1.76193349	     -5.67117164	     -0.42973964	      1.03552759	      0.34352874	     -2.91459685	      4.95276336	     -2.57416958	     -6.59935693	     -1.73178451	    -13.10432044	     -3.47191571	     23.16122231	     -7.08246952	    -10.81726321	    -48.60548933	      6.67234948	    -13.49636911	    -12.10715154	    -15.90014778	      3.08066771	      8.96757582
      0.75866667	      3.44451522	     -1.75556670	     -5.74404340	     -0.42431082	      1.03555366	      0.34387381	     -3.38745489	      4.92658893	     -2.51423121	     -6.40458691	     -1.54366726	    -13.00589375	     -3.53250345	     23.17573831	     -7.05792225	    -11.05372355	    -46.86797478	      6.69998474	    -13.42954732	    -12.17947847	    -15.92991930	      2.99901816	      9.00670949
      0.76283333	      3.31344551	     -1.84146638	     -5.69541705	     -0.41894002	      1.03516106	      0.34392626	     -3.68560385	      5.02013691	     -2.53253558	     -6.21838052	     -1.40064544	    -13.02053434	     -3.55560796	     23.41743818	     -7.08353389	    -11.10573401	    -45.18226959	      6.73000901	    -13.22318493	    -12.20453503	    -15.81806958	      3.09910590	      9.04473484
      0.76700000	      3.19269665	     -1.91525787	     -5.67434367	     -0.41353151	      1.03474134	      0.34402901	     -3.98334502	      5.09616427	     -2.54426310	     -6.06006999	     -1.22994108	    -12.99654240	     -3.57926001	     23.60036172	     -7.10209451	    -11.20356771	    -43.42620923	      6.76788229	    -13.01259296	    -12.22873558	    -15.69806856	      3.16809048	      9.05039099
      0.77116667	      3.19398779	     -1.96187558	     -5.72115880	     -0.40811441	      1.03450360	      0.34423969	     -4.40934505	      5.12158498	     -2.49456525	     -5.90735878	     -0.99931997	    -12.84896044	     -3.64122072	     23.57744135	     -7.10204454	    -11.40445759	    -41.56609732	      6.80573579	    -12.82353300	    -12.28392561	    -15.71872157	      3.16934787	      9.06594043
      0.77533333	      3.03266142	     -2.09881382	     -5.64655620	     -0.40271740	      1.03385055	      0.34418840	     -4.65586771	      5.26990999	     -2.55733919	     -5.77521005	     -0.82686942	    -12.87847707	     -3.66157455	     23.78154267	     -7.15479595	    -11.43646289	    -39.76252214	      6.81611502	    -12.54569431	    -12.29903745	    -15.55950187	      3.33560119	      9.08326217
      0.77950000	      2.93916021	     -2.19359332	     -5.63543833	     -0.39725977	      1.03329000	      0.34423176	     -4.97083884	      5.35520551	     -2.57150387	     -5.65491646	     -0.59533292	    -12.75634084	     -3.70912564	     23.83941380	     -7.17347497	    -11.56070325	    -37.86613826	      6.86666453	    -12.25848604	    -12.32843600	    -15.46408603	      3.42270900	      9.03641216
      0.78366667	      2.77670874	     -2.35702565	     -5.55008460	     -0.39187405	      1.03249740	      0.34410535	     -5.20222861	      5.52787127	     -2.64281685	     -5.55794744	     -0.39129209	    -12.76649763	     -3.72903032	     23.99811252	     -7.23152635	    -11.57414843	    -35.99193537	      6.84209720	    -11.92941765	    -12.33824764	    -15.31166392	      3.62516691	      9.03474269
      0.78783333	      2.60531374	     -2.51728897	     -5.47776732	     -0.38641979	      1.03164736	      0.34397489	     -5.42471638	      5.69315626	     -2.70721835	     -5.46856104	     -0.16522464	    -12.72312802	     -3.74762216	     24.12935746	     -7.28279196	    -11.60596096	    -34.07839989	      6.83181373	    -11.57979033	    -12.34479767	    -15.13871853	      3.82107717	      8.99314286
      0.79200000	      2.48024605	     -2.66095803	     -5.42402415	     -0.38093175	      1.03083081	      0.34384012	     -5.69368361	      5.82740308	     -2.77108418	     -5.38937720	      0.10849855	    -12.55569967	     -3.78545126	     24.16665905	     -7.30757972	    -11.66041179	    -32.11188239	      6.83186000	    -11.23215210	    -12.35233279	    -15.01198887	      3.98019676	      8.88560745
      0.79616667	      2.30153297	     -2.87251230	     -5.31485039	     -0.37549778	      1.02981428	      0.34359281	     -5.89979548	      6.04879936	     -2.86940142	     -5.32555569	      0.34821006	    -12.55512649	     -3.80122278	     24.28631734	     -7.38379796	    -11.64228430	    -30.18438147	      6.75057941	    -10.86325062	    -12.35356965	    -14.83692647	      4.25238727	      8.85985305
